# xmcd
# 
# Track frame offsets:
#     150
#     5887
#     24850
#     43592
#     55504
#     69399
#     85030
#     108080
#     120002
#     135268
#     144424
#     159575
#     169275
#     188845
# 
# Disc length: 2716
# 
# Revision: 4
# Processed by: cddbd v1.5.2PL0 Copyright (c) Steve Scherf et al.
# Submitted via: BonkEnc v1.0.6
# 
DISCID=a20a9a0e
DTITLE=Johnny Dowd - The Pawnbroker's Wife
DYEAR=2002
DGENRE=Country
TTITLE0=I love you
TTITLE1=Rose tattoo
TTITLE2=Monkey run
TTITLE3=On shakey ground we stand
TTITLE4=Billy blu
TTITLE5=Virginia beach
TTITLE6=Judgment day
TTITLE7=Jingle bells
TTITLE8=Separate beds
TTITLE9=Sweeter than honey
TTITLE10=King of emptiness
TTITLE11=Woody Guthrie blues
TTITLE12=True love
TTITLE13=Sleeping in the grass
EXTD=
EXTT0=
EXTT1=
EXTT2=
EXTT3=
EXTT4=
EXTT5=
EXTT6=
EXTT7=
EXTT8=
EXTT9=
EXTT10=
EXTT11=
EXTT12=
EXTT13=
PLAYORDER=
